<svg xmlns="http://www.w3.org/2000/svg" width="20" height="20" viewBox="0 0 20 20" fill="none"><g id="Group 6"><circle id="Ellipse 16" cx="10" cy="10" r="10" fill="url(#paint0_linear_59_736)"></circle><g id="&#xF0;&#x9F;&#xA6;&#x86; icon &quot;bike parking&quot;"><path id="Vector" d="M6.93823 12.3067C7.22744 12.3067 7.50187 12.3701 7.74838 12.4836L8.87646 10.3685H8.32268V9.81469H9.98402V10.3685H9.43024L8.98722 11.1991H11.7731L11.9222 10.9222H11.0916V10.3685H12.7529V10.9222H12.476L12.1033 11.6145H12.1991L12.7126 12.513C12.9744 12.381 13.2703 12.3067 13.5836 12.3067C14.654 12.3067 15.5218 13.1745 15.5218 14.2449C15.5218 15.3154 14.654 16.1832 13.5836 16.1832C12.6071 16.1832 11.7993 15.4611 11.665 14.5218H10.5378H10.2609H9.98402L8.57828 11.9659L8.16372 12.7432C8.59874 13.0986 8.87646 13.6393 8.87646 14.2449C8.87646 15.3154 8.00869 16.1832 6.93823 16.1832C5.86777 16.1832 5 15.3154 5 14.2449C5 13.1745 5.86777 12.3067 6.93823 12.3067ZM10.836 13.968H11.665C11.7324 13.4966 11.9695 13.0799 12.3124 12.7818L11.8811 12.0271L10.836 13.968ZM11.475 11.7529H9.0149L10.258 14.0131L11.475 11.7529ZM6.93823 12.8605C6.1736 12.8605 5.55378 13.4803 5.55378 14.2449C5.55378 15.0096 6.1736 15.6294 6.93823 15.6294C7.70283 15.6294 8.32268 15.0096 8.32268 14.2449C8.32268 13.852 8.15893 13.4972 7.89596 13.2452L7.21512 14.5218H6.66134L7.48708 12.9736C7.31879 12.9008 7.13322 12.8605 6.93823 12.8605ZM13.5836 12.8605C13.3703 12.8605 13.1683 12.9087 12.9879 12.9948L13.8605 14.5218H13.722H13.3067H12.2268C12.3551 15.1538 12.9138 15.6294 13.5836 15.6294C14.3482 15.6294 14.968 15.0096 14.968 14.2449C14.968 13.4803 14.3482 12.8605 13.5836 12.8605ZM12.2268 13.968H12.9902L12.5948 13.276C12.4115 13.4629 12.2809 13.7016 12.2268 13.968ZM9.93418 7.23408V8.43024H9.13674V4.94143H10.3641C11.2404 4.94143 11.6786 5.3129 11.6786 6.05582C11.6786 6.40731 11.5538 6.69154 11.3044 6.90856C11.0549 7.12556 10.7218 7.23408 10.3049 7.23408H9.93418ZM9.93418 5.53951V6.63599H10.2301C10.6309 6.63599 10.8313 6.45117 10.8313 6.08152C10.8313 5.72018 10.6309 5.53951 10.2301 5.53951H9.93418ZM8.04579 4H12.476C12.9348 4 13.3067 4.37192 13.3067 4.83067V8.43024C13.3067 8.88902 12.9348 9.26091 12.476 9.26091H8.04579C7.58701 9.26091 7.21512 8.88902 7.21512 8.43024V4.83067C7.21512 4.37192 7.58701 4 8.04579 4ZM8.04579 4.55381C7.89286 4.55381 7.7689 4.67777 7.7689 4.8307V8.43027C7.7689 8.58317 7.89286 8.70716 8.04579 8.70716H12.476C12.6289 8.70716 12.7529 8.58317 12.7529 8.43027V4.8307C12.7529 4.67777 12.6289 4.55381 12.476 4.55381H8.04579Z" fill="white"></path></g></g><defs><linearGradient id="paint0_linear_59_736" x1="-7.45058e-08" y1="10" x2="20" y2="10" gradientUnits="userSpaceOnUse"><stop stop-color="#7461FD"></stop><stop offset="1" stop-color="#37E2E7"></stop></linearGradient></defs></svg>