<svg xmlns="http://www.w3.org/2000/svg" width="20" height="20" viewBox="0 0 20 20" fill="none"><g id="Group 1"><circle id="Ellipse 16" cx="10" cy="10" r="10" fill="url(#paint0_linear_59_730)"></circle><g id="&#xF0;&#x9F;&#xA6;&#x86; icon &quot;Money Bag&quot;"><g id="Group"><path id="Vector" fill-rule="evenodd" clip-rule="evenodd" d="M10.0108 5C8.75623 5 7.61295 5.41437 6.93673 5.75308C6.87578 5.7836 6.81865 5.81351 6.76555 5.84244C6.6605 5.8997 6.5713 5.95314 6.5 6L7.26943 7.13268L7.63158 7.27685C9.04723 7.99113 10.9456 7.99113 12.3613 7.27685L12.7725 7.0635L13.5 6C13.3934 5.92893 13.246 5.8427 13.0645 5.75101C13.0535 5.74542 13.0423 5.73981 13.031 5.73418C12.3577 5.39916 11.2422 5 10.0108 5ZM8.2213 6.28227C7.9444 6.23118 7.67233 6.16072 7.4155 6.07987C8.0492 5.79849 8.99358 5.5 10.0108 5.5C10.7157 5.5 11.3821 5.64331 11.9333 5.82478C11.2873 5.91596 10.598 6.06989 9.94135 6.25985C9.42468 6.40932 8.82073 6.39287 8.2213 6.28227Z" fill="white"></path><path id="Vector_2" fill-rule="evenodd" clip-rule="evenodd" d="M12.6546 7.6889L12.5865 7.72325C11.0292 8.509 8.96365 8.509 7.40635 7.72325L7.3416 7.6906C5.00227 10.2576 2.54811 15.0713 10.0108 14.9992C17.4684 14.9271 14.9758 10.169 12.6546 7.6889ZM10.4278 9.5H9.57218V9.9C9.29413 9.89935 9.02678 9.99998 8.8267 10.1806C8.62668 10.3611 8.5097 10.6074 8.50058 10.8672C8.49145 11.127 8.5909 11.3799 8.77783 11.5724C8.96478 11.7648 9.22453 11.8816 9.50203 11.898L9.57218 11.9H10.4278L10.4663 11.9032C10.5157 11.9116 10.5603 11.9358 10.5924 11.9718C10.6245 12.0078 10.6422 12.0532 10.6422 12.1C10.6422 12.1469 10.6245 12.1923 10.5924 12.2282C10.5603 12.2642 10.5157 12.2885 10.4663 12.2968L10.4278 12.3H8.71653V13.1H9.57218V13.5H10.4278V13.1C10.7059 13.1007 10.9732 13 11.1733 12.8195C11.3733 12.6389 11.4903 12.3927 11.4994 12.1328C11.5086 11.873 11.4091 11.6201 11.2222 11.4277C11.0352 11.2352 10.7755 11.1184 10.498 11.102L10.4278 11.1H9.57218L9.53368 11.0968C9.48435 11.0885 9.43973 11.0642 9.4076 11.0282C9.37548 10.9923 9.35785 10.9469 9.35785 10.9C9.35785 10.8532 9.37548 10.8078 9.4076 10.7718C9.43973 10.7358 9.48435 10.7116 9.53368 10.7032L9.57218 10.7H11.2835V9.9H10.4278V9.5Z" fill="white"></path></g></g></g><defs><linearGradient id="paint0_linear_59_730" x1="-7.45058e-08" y1="10" x2="20" y2="10" gradientUnits="userSpaceOnUse"><stop stop-color="#7461FD"></stop><stop offset="1" stop-color="#37E2E7"></stop></linearGradient></defs></svg>