<svg xmlns="http://www.w3.org/2000/svg" width="20" height="20" viewBox="0 0 20 20" fill="none"><g id="Group 5"><circle id="Ellipse 12" cx="10" cy="10" r="10" fill="url(#paint0_linear_59_701)"></circle><g id="&#xF0;&#x9F;&#xA6;&#x86; icon &quot;home&quot;"><path id="Vector" fill-rule="evenodd" clip-rule="evenodd" d="M9.26374 4.82958C9.47067 4.65212 9.73427 4.55457 10.0069 4.55457C10.2795 4.55457 10.5431 4.65212 10.75 4.82958L14.3663 7.9288L15.7858 9.06461C15.8443 9.11145 15.8931 9.16937 15.9292 9.23505C15.9654 9.30073 15.9883 9.37289 15.9965 9.44741C16.0048 9.52193 15.9983 9.59735 15.9774 9.66935C15.9565 9.74136 15.9217 9.80856 15.8748 9.86709C15.828 9.92563 15.7701 9.97437 15.7044 10.0105C15.6387 10.0467 15.5666 10.0695 15.492 10.0778C15.4175 10.0861 15.3421 10.0796 15.2701 10.0587C15.1981 10.0378 15.1309 10.003 15.0724 9.95613L14.5729 9.5566V14.0764C14.5729 14.3792 14.4527 14.6695 14.2386 14.8836C14.0245 15.0977 13.7342 15.218 13.4314 15.218H11.1484V12.3642C11.1484 12.0614 11.0281 11.7711 10.814 11.557C10.6 11.3429 10.3096 11.2226 10.0069 11.2226C9.70412 11.2226 9.41377 11.3429 9.1997 11.557C8.98562 11.7711 8.86535 12.0614 8.86535 12.3642V15.218H6.58232C6.27957 15.218 5.98922 15.0977 5.77515 14.8836C5.56107 14.6695 5.4408 14.3792 5.4408 14.0764V9.55603L4.94139 9.95556C4.88325 10.0052 4.81573 10.0427 4.74283 10.0657C4.66994 10.0888 4.59315 10.0969 4.51704 10.0897C4.44092 10.0825 4.36703 10.0601 4.29975 10.0238C4.23246 9.98753 4.17316 9.93808 4.12535 9.87841C4.07754 9.81875 4.04221 9.75009 4.02145 9.67651C4.00069 9.60293 3.99492 9.52593 4.00449 9.45008C4.01406 9.37423 4.03877 9.30107 4.07715 9.23495C4.11554 9.16883 4.16682 9.1111 4.22794 9.06518L5.64742 7.92937L9.26374 4.82958Z" fill="white"></path></g></g><defs><linearGradient id="paint0_linear_59_701" x1="-7.45058e-08" y1="10" x2="20" y2="10" gradientUnits="userSpaceOnUse"><stop stop-color="#7461FD"></stop><stop offset="1" stop-color="#37E2E7"></stop></linearGradient></defs></svg>