<svg xmlns="http://www.w3.org/2000/svg" width="20" height="20" viewBox="0 0 20 20" fill="none"><g id="Group 3"><circle id="Ellipse 14" cx="10" cy="10" r="10" fill="url(#paint0_linear_59_711)"></circle><g id="&#xF0;&#x9F;&#xA6;&#x86; icon &quot;music note beamed&quot;"><path id="Vector" d="M8.5714 13.4588C8.5714 14.2481 7.77141 14.8874 6.7857 14.8874C5.79999 14.8874 5 14.2481 5 13.4588C5 12.6702 5.79999 12.0302 6.7857 12.0302C7.77141 12.0302 8.5714 12.6702 8.5714 13.4588ZM14.9999 12.0302C14.9999 12.8195 14.1999 13.4588 13.2142 13.4588C12.2285 13.4588 11.4285 12.8195 11.4285 12.0302C11.4285 11.241 12.2285 10.6017 13.2142 10.6017C14.1999 10.6017 14.9999 11.241 14.9999 12.0302Z" fill="white"></path><path id="Vector_2" fill-rule="evenodd" clip-rule="evenodd" d="M14.286 12.0302V5.60168H15.0002V12.0302H14.286ZM8.5717 6.31597V13.4588H7.85742V6.31597H8.5717Z" fill="white"></path><path id="Vector_3" d="M7.85742 6.24812C7.85742 6.07104 7.92319 5.90028 8.04198 5.76896C8.16076 5.63763 8.32409 5.55511 8.50027 5.53741L14.2145 4.96598C14.3138 4.956 14.4142 4.96695 14.509 4.99812C14.6038 5.02929 14.6911 5.08 14.7651 5.14696C14.8391 5.21393 14.8983 5.29567 14.9388 5.38691C14.9793 5.47815 15.0002 5.57687 15.0002 5.67669V6.31597L7.85742 7.03025V6.24812Z" fill="white"></path></g></g><defs><linearGradient id="paint0_linear_59_711" x1="-7.45058e-08" y1="10" x2="20" y2="10" gradientUnits="userSpaceOnUse"><stop stop-color="#7461FD"></stop><stop offset="1" stop-color="#37E2E7"></stop></linearGradient></defs></svg>