<?xml version="1.0" encoding="UTF-8"?>
<svg xmlns="http://www.w3.org/2000/svg" width="40" height="40" viewBox="0 0 40 40" fill="none">
  <g id="Pin">
    <path id="Subtract" d="M20.3963 33.1426L20.8433 34.037L20.3963 33.1426ZM19.6031 33.1426L19.156 34.037L19.6031 33.1426ZM30.6663 18.3333C30.6663 22.3041 28.5614 25.509 26.1002 27.8986C23.6422 30.2852 20.9265 31.7596 19.9492 32.2481L20.8433 34.037C21.9075 33.5052 24.8268 31.9226 27.4934 29.3335C30.1569 26.7475 32.6663 23.0579 32.6663 18.3333H30.6663ZM19.9997 7.66667C25.8907 7.66667 30.6663 12.4423 30.6663 18.3333H32.6663C32.6663 11.3377 26.9953 5.66667 19.9997 5.66667V7.66667ZM9.33301 18.3333C9.33301 12.4423 14.1086 7.66667 19.9997 7.66667V5.66667C13.0041 5.66667 7.33301 11.3377 7.33301 18.3333H9.33301ZM20.0502 32.2481C19.0729 31.7596 16.3571 30.2852 13.8991 27.8986C11.4379 25.509 9.33301 22.3041 9.33301 18.3333H7.33301C7.33301 23.0579 9.84241 26.7475 12.5059 29.3335C15.1726 31.9226 18.0919 33.5052 19.156 34.037L20.0502 32.2481ZM19.9492 32.2481C19.9562 32.2445 19.9742 32.2381 19.9997 32.2381C20.0251 32.2381 20.0431 32.2445 20.0502 32.2481L19.156 34.037C19.6923 34.3051 20.3071 34.3051 20.8433 34.037L19.9492 32.2481ZM23.9997 18.3333C23.9997 20.5425 22.2088 22.3333 19.9997 22.3333V24.3333C23.3134 24.3333 25.9997 21.647 25.9997 18.3333H23.9997ZM19.9997 14.3333C22.2088 14.3333 23.9997 16.1242 23.9997 18.3333H25.9997C25.9997 15.0196 23.3134 12.3333 19.9997 12.3333V14.3333ZM15.9997 18.3333C15.9997 16.1242 17.7905 14.3333 19.9997 14.3333V12.3333C16.686 12.3333 13.9997 15.0196 13.9997 18.3333H15.9997ZM19.9997 22.3333C17.7905 22.3333 15.9997 20.5425 15.9997 18.3333H13.9997C13.9997 21.647 16.686 24.3333 19.9997 24.3333V22.3333Z" fill="#33363F"></path>
  </g>
</svg>
