<svg xmlns="http://www.w3.org/2000/svg" width="21" height="20" viewBox="0 0 21 20" fill="none"><g id="&#xF0;&#x9F;&#xA6;&#x86; icon &quot;facebook fill&quot;"><path id="Vector" fill-rule="evenodd" clip-rule="evenodd" d="M0.5 10.0558C0.5 15.0279 4.11111 19.162 8.83333 20V12.7777H6.33333V10H8.83333V7.77777C8.83333 5.27777 10.4444 3.88888 12.7222 3.88888C13.4444 3.88888 14.2222 3.99999 14.9444 4.1111V6.66666H13.6667C12.4444 6.66666 12.1667 7.27777 12.1667 8.05555V10H14.8333L14.3889 12.7777H12.1667V20C16.8889 19.162 20.5 15.0279 20.5 10.0558C20.5 4.52514 16 0 10.5 0C5 0 0.5 4.52514 0.5 10.0558H0.5Z" fill="url(#paint0_linear_59_693)"></path></g><defs><linearGradient id="paint0_linear_59_693" x1="0.5" y1="10" x2="20.5" y2="10" gradientUnits="userSpaceOnUse"><stop stop-color="#7461FD"></stop><stop offset="1" stop-color="#37E2E7"></stop></linearGradient></defs></svg>