<svg xmlns="http://www.w3.org/2000/svg" width="21" height="20" viewBox="0 0 21 20" fill="none"><g id="&#xF0;&#x9F;&#xA6;&#x86; icon &quot;linkedin with circle&quot;"><path id="Vector" d="M10.5 0C4.97708 0 0.5 4.47708 0.5 10C0.5 15.5229 4.97708 20 10.5 20C16.0229 20 20.5 15.5229 20.5 10C20.5 4.47708 16.0229 0 10.5 0ZM8.05208 14.1448H6.02708V7.62812H8.05208V14.1448ZM7.02708 6.82812C6.3875 6.82812 5.97396 6.375 5.97396 5.81458C5.97396 5.24271 6.4 4.80312 7.05312 4.80312C7.70625 4.80312 8.10625 5.24271 8.11875 5.81458C8.11875 6.375 7.70625 6.82812 7.02708 6.82812ZM15.4479 14.1448H13.4229V10.5333C13.4229 9.69271 13.1292 9.12187 12.3969 9.12187C11.8375 9.12187 11.5052 9.50833 11.3583 9.88021C11.3042 10.0125 11.2906 10.2 11.2906 10.3865V14.1437H9.26458V9.70625C9.26458 8.89271 9.23854 8.2125 9.21146 7.62708H10.9708L11.0635 8.53229H11.1042C11.3708 8.10729 12.024 7.48021 13.1167 7.48021C14.449 7.48021 15.4479 8.37292 15.4479 10.2917V14.1448Z" fill="url(#paint0_linear_59_695)"></path></g><defs><linearGradient id="paint0_linear_59_695" x1="0.5" y1="10" x2="20.5" y2="10" gradientUnits="userSpaceOnUse"><stop stop-color="#7461FD"></stop><stop offset="1" stop-color="#37E2E7"></stop></linearGradient></defs></svg>